<svg width="32" height="32" viewBox="0 0 64 64" xmlns="http://www.w3.org/2000/svg">
  <defs>
    <linearGradient id="capre_bg" x1="0" y1="0" x2="1" y2="1">
      <stop offset="0%" stop-color="#3b82f6" />
      <stop offset="100%" stop-color="#1d4ed8" />
    </linearGradient>
    <linearGradient id="capre_accent" x1="0" y1="0" x2="0" y2="1">
      <stop offset="0%" stop-color="#60a5fa" />
      <stop offset="100%" stop-color="#3b82f6" />
    </linearGradient>
  </defs>
  
  <!-- Outer container with softer radius -->
  <rect x="4" y="4" width="56" height="56" rx="16" fill="url(#capre_bg)" />
  
  <!-- Abstract sound wave / quote mark hybrid - unique to Capre -->
  <!-- Top curve - like an opening quote or sound wave -->
  <path
    d="M 18 24 Q 18 18 24 18 L 28 18 Q 32 18 32 22 L 32 28 Q 32 32 28 32 L 26 32 Q 24 32 24 30 L 24 26"
    fill="white"
    opacity="0.95"
  />
  
  <!-- Bottom curve - mirrored, creates unique rhythm -->
  <path
    d="M 46 40 Q 46 46 40 46 L 36 46 Q 32 46 32 42 L 32 36 Q 32 32 36 32 L 38 32 Q 40 32 40 34 L 40 38"
    fill="white"
    opacity="0.95"
  />
  
  <!-- Center connecting element - creates flow and movement -->
  <circle cx="32" cy="32" r="3" fill="url(#capre_accent)" opacity="0.9" />
  
  <!-- Accent dots for rhythm (like audio visualization) -->
  <circle cx="20" cy="32" r="2" fill="white" opacity="0.6" />
  <circle cx="44" cy="32" r="2" fill="white" opacity="0.6" />
</svg>
